<?xml version="1.0" encoding="UTF-8"?>
<svg xmlns="http://www.w3.org/2000/svg" xmlns:xlink="http://www.w3.org/1999/xlink" viewBox="0 0 1149.75 747.75">
  <defs>
    <style>
      .cls-1 {
        fill: #070603;
      }

      .cls-2 {
        fill: #ceb87c;
      }

      .cls-3 {
        fill: #010101;
      }

      .cls-4 {
        fill: #6f6856;
      }

      .cls-5 {
        fill: #020202;
      }

      .cls-6 {
        fill: #ceb77b;
      }

      .cls-7 {
        fill: #fff;
      }

      .cls-8 {
        fill: #1c1a14;
      }

      .cls-9 {
        fill: #060503;
      }

      .cls-10 {
        fill: #222019;
      }

      .cls-11 {
        fill: #a3987a;
      }

      .cls-12 {
        fill: #f7f6e9;
      }

      .cls-13 {
        fill: #887f67;
      }

      .cls-14 {
        fill: #9e9271;
      }

      .cls-15 {
        fill: #ceb77c;
      }

      .cls-16 {
        fill: #756e59;
      }

      .cls-17 {
        fill: #92886f;
      }

      .cls-18 {
        fill: #f4f4f4;
      }

      .cls-19 {
        fill: #fefefe;
      }

      .cls-20 {
        fill: #e8e8e8;
      }
    </style>
  </defs>
  <g id="Layer_1_Image" data-name="Layer 1 Image">
    <g>
      <path class="cls-19" d="M.02.75v-.75h1149.73v747.75H.02V3.75c-.08-.72.12-1.12.73-1.12h1146.34c.33-.75.93-1.12,1.92-1.12C765.94,1.58,382.94,1.33.02.75Z"/>
      <path class="cls-18" d="M1149,1.5l-.44,2.26H.02V1.5c382.78-.33,765.78-.33,1148.98,0Z"/>
      <polygon class="cls-20" points="1149 1.5 .02 1.5 .02 .75 1149 1.5"/>
      <path d="M830.93,565.41c-3.2,4.8-2.95,8.88-4.58,14.52-3.35,11.64-7.61,23.33-10.52,35.18-.51,2.08-1.22,12.54-3.72,12.01-8.11-10.59-15.49-22.83-18.91-35.8-2.75-10.44-4.25-30.96-3.21-41.74,1.55-16.03,11.77-20.41,22.09-29.62,2.74-2.44,5.13-5.49,7.87-7.86,5.07-4.39,10.68-8.24,15.38-13.09,1.86-.04,1,11.22,1.09,13.13.74,14.57,2.68,40.99-5.5,53.27Z"/>
      <path d="M726.28,394.1h-49.84c-.09,0-1.46-1.07-.8-1.53,5.06-8.23,9.68-17.43,15.09-25.4,9.25-13.63,19.98-25.91,30.29-38.65,13.28-16.43,11.97-26.28,17.6-45.34.32-1.09,1.4-5,2.29-5.21,2.83-.66,1.73,7.6,1.87,9.36.51,6.52.37,12.38.71,18.77,1.34,24.91,7.64,51.14-10.12,72.24l-7.09,15.76Z"/>
      <path d="M779.31,363.93c-1.87,1.33-2.44.84-3.2-1.29-1.24-3.48-2.44-14.99-2.64-19.08-1.54-31.17,20.41-55.63,28.89-84.32,3.23-10.91,3.86-22.13,9.81-32.15.96-1.62,9.58-13.47,10.43-13.54,1.25-.1.65,1.63.62,2.08-.35,5.38-2.19,11.37-2.52,16.98-.99,16.99,3,33.52.69,50.89-1.75,13.11-14.7,38.36-21.77,50.16-6.26,10.44-14.73,19.43-20.29,30.27Z"/>
      <path d="M918.9,241.26c-2.83,19.2-7.66,36.87-20.6,51.7-16.8,19.27-36.89,23.22-61.56,26.12-5.33.63-10.6-.07-16.21,1.03-2.07.4-11.95,4.72-12.55,1.67-.25-1.28,5.63-10.88,6.87-12.59,8.1-11.16,26.6-26.91,40.81-28.2,8.71-.79,20.96,5.34,29.18,3.01,8.71-2.47,17.65-15.92,21.93-23.79,2.53-4.64,3.66-10.13,6.57-14.42.73-1.07,4.26-5.81,5.57-4.54Z"/>
      <path d="M545.65,515.48c4.57-1.68,32.6-9.71,35.22-7.49l-9.36,12.74c-3.68,3.42-6.92,7.38-10.88,10.48l.29,1.67c-3.13,2.96-11.19,8.5-15.28,8.07-11.65,5.67-27.9,7.84-40.46,13.12-8.27,3.48-28.01,17.85-34.84,17.63-5.46-.18-9.18-4.72-8.59-10.08.66-6.03,3.35-10.78,7.84-14.67,14.47-12.53,32.9-15.96,50.58-21.74l2.53-2.44c6.86-3.15,15.63-6.66,22.96-7.3Z"/>
      <path class="cls-15" d="M457.17,566.47c.25.22.82,4.08,2.63,5.99,2.4,2.53,7.41,2.2,5.21,6.04l-164.84,75.58c-1.51.21-.97-.05-1.1-1.1-.29-2.36.58-5.37-1.84-7.17-2.26-1.68-10.29-.76-5.86-3.53,5.31-3.32,14.82-6.95,20.91-9.81,47.34-22.26,95.1-43.71,142.48-65.87.63-.14,2.06-.43,2.4-.13Z"/>
      <path d="M722.54,397.85c.55.49-5.84,11.88-6.62,13.24-14.9,26.03-39.87,54.03-69.82,62.07-9.16,2.46.84-7.02,2.55-9.44,4.9-6.95,10.38-15.3,13.53-23.19,5.5-13.78,5.92-29.04,11.64-42.68h48.72Z"/>
      <path d="M670.82,397.1c.51,2.59-1.4,4.34-2.05,6.57-6.64,23.04-8.89,38.59-23.87,58.55-3.24,4.31-9.81,12.9-14.57,14.66-4.6,1.71-23.35,1.87-28.05.34-9.22-3-1.11-14.91,2.95-19.45,2.81-3.15,7.13-5.69,10.14-8.6,15.72-15.19,28.14-32.48,37.84-52.08h17.61Z"/>
      <path d="M794.02,346.42c.15-.24.9-.36,1.2-.82,2.23-3.48,3.3-8.91,8.08-9.82,2.35-.44,4.92,2.42,6.86,4.07,14.63,12.46,33.6,12.89,51.43,19.02,7.43,2.55,14.56,5.55,21.9,8.08,3.29,1.14,4.74,3.98.61,3.96-2.93-.02-6.23-.87-9.83-.79-16.69.37-23.52,4.92-38.21,8.95-19.04,5.23-37.16.1-55.47-5.16-2.83-4.01,6.38-15.01,8.52-18.55,1.73-2.86,3.16-6.14,4.93-8.95Z"/>
      <path d="M850.7,399.35c1.45,1.29-.51,5.14-.69,6.43-2.23,16.26-3.14,31.18-10.28,46.02-5.15,10.7-13.96,19.13-20.38,28.97-2.45,3.75-17.39,31.7-19.24,31.7-4.33,0-3.62-20.94-3.36-24.33.81-10.73,7-24.12,12.09-33.62,5.4-10.08,19.94-29.11,20.91-39.78.23-2.53-1.99-15.39,1.09-15.39,2.81,0,19.12-.66,19.86,0Z"/>
      <path d="M833.46,199.3c.68.64-.75,1.78-1.12,2.25-5.91,7.69-16.92,13.48-22.26,21.95-6.08,9.64-7.59,19.64-11.26,29.95-4.58,12.87-10.79,29-16.18,41.52-1.1,2.55-2.8,6.56-6.13,6.22-.67-11.48-5.59-25-5.73-36.21-.06-4.65,1.33-15.4,2.06-20.26,1.73-11.53,8.5-26.24,18.89-32.06,4.4-2.46,40.09-14.88,41.73-13.35Z"/>
      <path d="M826.56,400.26c.56.32,1.58,3.04,1.69,3.92,1.94,15.78-10.73,27.43-16.91,40.85-3.24,8.1-8.26,15.23-12.14,23.08-1.25,2.53-2.03,7.81-4.71,8.4-.23-4.72,1.91-9.23,2.23-13.87.78-11.08-4.77-30.27-10.06-40.12-2.94-5.47-11-13.85-12.74-18.73-.45-1.28-.57-2.36-.42-3.7l53.06.16Z"/>
      <path d="M773.34,377.47l-28.29,17.79c-2.81.22-13.5,1.47-14.66-1.13-.52-1.16,9.69-19.5,11.01-22.75,5.94-14.55,6.81-21.89,6.65-37.62-.05-5.22-.33-10.32-.34-15.63,0-1.87-1.46-10.95.68-10.93.85.01,8.58,12,10.76,13.2,6.23,11.68,8.31,21.62,10.69,34.27.66,3.52,4.57,20.96,3.5,22.79Z"/>
      <path class="cls-15" d="M649.83,392.61c-.16,1.08.25,5.78,0,6-.21.18-4.63.47-5.5.47-8.71,0-17.64-.29-26.39-.44-81.92-1.36-163.79-3.7-245.86-4.46-1.38.27-.99-1.48-1.08-1.55-1.78-1.34-1.33,1.54-1.69,2.37-2.07,4.76-5.7,6.08-7.5.36-.49-1.56.33-2.66.22-2.75-.7-.54-7.21-.53-7.51-.76-.12-.09-.1-2.88,0-2.99.44-.46,7.22.56,8.15-.1.81-.58,2.03-9.55,6.88-6.3,2.72,1.82-1.05,6,3.3,6.44,4.11.41,9.84-.04,14.25,0,77.47.66,155,3.23,232.34,4.49,8.65.14,18.52.48,27.06.01,1.27-.07,2.2-.21,3.32-.79Z"/>
      <path d="M790.74,588.91c.25,4.28,1.25,8.8,2.46,12.9,3,10.18,9.46,17.13,14.16,26.3,7.92,15.46-1.11,31.95,8.54,46.16,2.06,3.04,11.21,10.15,10.02,13.82-.96,2.96-13,.49-15.84-.51-5.6-1.96-11.36-6.62-14.71-11.52-5.92-8.66-4.48-19.87-5.37-29.84-1.55-17.37-3.82-31.94-1.52-49.47.09-.7-.09-10.53,2.27-7.85Z"/>
      <path d="M775,226.28c-1.71,7.48-2.71,15.07-3.95,22.64-.95,5.75-2.66,11.14-2.82,17.41-.32,12.44,4.32,25.87,5.3,38.22.32,3.99.63,16.02-.02,19.51-.8,4.26-4.04,2.06-5.98-.03-10.83-11.67-22.09-34.05-21.04-50.2.82-12.58,15.22-39.94,25.85-46.84.92-.6,1.49-.93,2.66-.71Z"/>
      <path d="M897.92,251.37c-.79,6.26-4.55,6.47-7.9,10.09-1.31,1.42-2.9,4.06-3.95,5.79-2.14,3.53-4.28,10.77-6.09,13.19-.37.5-.84.85-1.46.93-4.83.59-10.77-14.86-13.25-18.34-2.64-3.71-8.23-7.35-10.21-11.53-2.14-4.52-.03-7.47-.76-11.18-.63-3.23-15.57-21.56-3.99-21.55,4.08,0,16.49,2.78,15.41,8.53-.1.55-1.24.53-1.52,1-1.66,2.78-.24,4.47,1.27,6.78,1.21,1.86,12.93,10.49,15.04,11.23,2.24.78,6.43,1.82,8.58.81,4.49-2.11,4.02-8.46,8.82-9.59-.39,4.39.54,9.58,0,13.86Z"/>
      <path class="cls-15" d="M857.45,215.03c-1.1.98-1.51.54-.75-.75-1.61-2.86-6.45-10.72-5.84-13.78.74-3.74,14.62-8.25,18.3-8.61,8.81-.85,12.5,2.79,20.24,3.57,7.11.71,15.76.1,22.61-1.95,2.52-.75,5.75-4.06,8.06-1.73,2.83,2.85,2.34,20.5.25,24.27-2.62,4.73-14.58,6.69-19.77,7.21-13.25,1.33-32.73.33-43.09-8.23Z"/>
      <path d="M653.58,394.85c7.44-11.47,13.11-25.56,22.46-35.61,14.45-15.51,33.8-32.82,45.6-50.32,1.66-2.46,7.35-14.43,9.5-14.48,1.47-.03.41,8.71.19,9.93-3.52,20.02-18.01,26.59-29.35,41.09-5.67,7.26-12.14,17.18-16.79,25.17-1.97,3.39-11.77,24.21-14.01,24.21h-17.61Z"/>
      <path d="M956.08,212.09c3.8-1.31,3.88,3.99,4.99,6.12,1.2,2.29,2.8,4.08,3.92,6.57,5.22,11.7,2.86,21.86,8.82,33.89,3.19,6.43,9.47,10.97,4.19,19.56-2.93,4.76-8.39,6.52-13.71,5.68s-3.65-6.7-4.35-10.64c-1.61-9.05-11.87-15.79-13.12-24.35-1.29-8.8,3-13.44,5.25-21.34.77-2.7,2.56-15.01,4-15.5Z"/>
      <path class="cls-15" d="M851.45,196.3c-.27-26.64,36.2-37.26,55.07-22.46,11.96,9.39,12.62,18.39-4.57,20.12-15.07,1.52-25.86-7.17-41.17-2.2-3.31,1.07-6.07,3.4-9.33,4.53Z"/>
      <path d="M845.45,198.55c1.2,1.25-4.45,18.29-5.41,21.18-.87,2.6-2.64,4.9-3.54,7.7-4.62,14.31-3.72,30.88,7.42,41.95,2.77,2.75,7.35,4.4,9.73,6.75.48.47,1.32,1.1.79,1.82-.5.68-13.37,5.11-15.77,6.35-2.1,1.08-3.95,2.71-6.22,3.52l-6.49,5.12c-.5-.59,1.54-13.33,1.52-15.32-.05-8.42-3.76-17.76-4.52-25.52-1.51-15.33-.22-33.81,10.49-45.7,1.26-1.4,10.72-9.18,11.99-7.86Z"/>
      <path d="M932.08,261.18c-2.08,2.6-12.4,14.99-14.26,16.08-1.19.7-2.02.91-3.41.71,7.96-22.84,10.68-47.04,8.24-71.18,25.74.3,26.83,27.97,16.06,45.65-1.83,3.01-4.42,5.98-6.62,8.74Z"/>
      <path d="M901.51,380.78c11.58-1.15,22.84,13.41,21.1,24.15-1.97,12.12-26.36,7.33-33.65,3-1.52-.91-10.33-8.87-10.91-10.09-1.59-3.39,4.72-8.19,7.19-10.04,4.05-3.02,11.23-6.52,16.27-7.02Z"/>
      <path d="M607.86,449.55c1.36,1.32-8.13,10.85-9.3,12.8-1.31,2.19-3.34,6.72-3.21,9.19.11,2.06,3.67,7.33,2.02,8.36-1.39.87-8.79,1.56-11.26,2.23-11.52,3.13-23.57,8.7-33.66,15.06-2.6,1.64-4.86,4.04-7.19,5.55-.95.62-1.56.86-1.87-.38-.92-3.81,9.64-12.3,12.38-15.34,7.66-8.48,24.6-31.56,33.73-35.21,2.15-.86,17.54-3.05,18.34-2.26Z"/>
      <path d="M538.91,513.24c-1.89-.96-.34-2.06.48-2.89,5.63-5.7,24.25-15.74,31.99-18.97,14.16-5.92,36.55-11.47,51.85-9.61.65.08.49,1.35.37,1.49-.18.22-3.81,2.17-4.85,3.03-9.92,8.28-13.68,14.75-27.84,17.12-4.08.68-9.38.3-13.39.85-12.89,1.77-25.27,5.89-37.86,8.98-.25.6-.5.6-.75,0Z"/>
      <path class="cls-15" d="M932.23,16.33c-.36.62-4.59,2.53-5.77,2.46,7.26,60.35,16.36,120.54,27.48,180.31.07,2.15-3.49,3.49-4.71,1.72l-28.09-181.34c-3.3,2.78-10.74-2.42-7.49-5.63,1.28-1.26,4.6-1.47,5.61-2.58.5-.55-.16-6.78,1.52-6.76,1.87.02,2.59,5.86,3.32,6.42,1.51,1.15,5.18-1.77,7.56.67.9.92,1.17,3.69.57,4.74Z"/>
      <path d="M795.24,696.05c-5.2-2.68-18.82-8.67-19.47-14.68-.31-2.86,2.31-13.48,3.06-17.08.27-1.28,1.26-2.37,1.55-3.7,2.71-12.52-.03-24.77,2.87-37.21,1.45-.23,2,.58,2.23,1.88.68,3.76,1.03,8.76,1.5,12.73,1.13,9.38,1.15,19.9,2.34,29.12,2.23,17.27,18.09,24.59,33.64,26.32,1.72.19,3.41-1.13,3.79,1.52.58,3.99-3.36,4.62-6.38,4.88-7.82.67-17.57-1.77-25.14-3.78Z"/>
      <path d="M809.74,337.65c-4.04-4.42-.11-9.66,4.19-12.14,12.62-1.89,25.22-3.18,37.89-4.08,2.98-.21,7.47-3.52,4.91,2.67-3.75,9.08-17.88,22.32-28.16,22.11-4.67-.1-15.73-5.15-18.83-8.56Z"/>
      <path class="cls-15" d="M795.24,696.05c9.97,5.13,21.05,9.23,30.97,14.37,12.78,6.62,24.54,15.37,37.52,21.69l.47,2.9c.97,1.08.54,1.5-.75.75-4.14.59-9.01-.9-12.77-2.59-30.14-13.59-55.98-41.69-91.44-40.45l-29.15-11.32c-4.11-3.32,7.85-2.61,9.14-2.4,5.07.86,13.37,7.62,19.13,9.35,8.39,2.53,17.79.37,26.39,3.59,4.1,1.54,5.85,2.88,10.5,4.11Z"/>
      <path d="M843.95,221.78c-.99,7.8,6.73,13.21,8.48,20.36.72,2.92.16,5.12.56,7.69,1.31,8.47,15.71,20.67,18.69,29.63-1.25.21-2.21-.35-3.29-.83-12.31-5.4-26.05-10.46-30.04-24.66-1.98-7.04-1.57-17.73.74-24.7.31-.93,3.74-8.76,4.86-7.5Z"/>
      <path d="M838.71,460.79c.19.22-.71,2.46-.75,3.37-.37,8.64-2.1,18.44-4.71,26.76-3.62,11.53-20.13,24.9-29.35,32.84s-10.88,9.06-4.56-3.05c10.75-20.6,27.91-38.79,37.53-58.42.24-.49.62-2.86,1.83-1.5Z"/>
      <path d="M773.88,396.35c-.49-.14-5.47-6.26-6.72-7.51-.96-.95-4.79-2.83-3.4-4.47.41-.49,11.08-3.01,12.41-3.03,7.34-.12,20.57-.05,27.32,1.9,7.65,2.2,16.49,7.26,21.73,13.11h-51.34Z"/>
      <path class="cls-15" d="M835.54,726.91c.26.45.26,2,.16,2.1-1.68,1.69-22.45-11.55-25.47-13.12-10.71-5.6-22.74-10.94-34.33-14.38-13.45-4-26.8-5.44-38.93-13.47-.65-.43-1.69-1.53-1.68-2.11.03-2,1.87-.22,2.3-.08,14.46,4.77,22.11,8.2,37.86,10.86,20.02,3.38,28.42,11.39,45.03,21.67,2.05,1.27,14.62,7.78,15.05,8.53Z"/>
      <path d="M834.96,382.87c.22-.97,1.2-1.67,2.07-2.05,13.3-5.85,32.57-10.88,47.06-9.22.75.09,2.58.34,2.57,1.16,0,.94-10.02,6.5-11.71,8.13-1.95,1.89-3.98,6.39-6.31,7.58s-7.07-2.34-9.48-3.18c-2.78-.97-9.08-2.42-11.82-2.42h-12.37Z"/>
      <path d="M547.15,545.46c1.31,1.12-4.09,3.7-4.61,4-13.97,8.24-45.66,22.49-61.14,25.79-3.13.67-6.93.61-3.47-2.72,2.89-2.79,14.85-8.46,19.02-10.21,12.97-5.43,33.12-12.59,46.6-16.36,1.2-.33,2.34-.68,3.6-.51Z"/>
      <path d="M916.47,222.64c6.02-.9,1.96,7.55-1.64,9.67-10.9,6.39-34.38.69-44.82-5.47-2.02-1.2-3.33-3-.17-3.57,2.55-.46,10.83,1.97,14.24,2.24,8.38.68,19.32.77,27.52-.94,1.81-.38,3.67-1.75,4.89-1.93Z"/>
      <path d="M864.19,392.6c-4.73-.38-9.74,3.82-13.92,4.45-2.49.38-18.09.56-20.07.08-.78-.19-.94-2.13-1.64-3-2.7-3.32-10.45-8.62-1.47-9.09,7.24-.38,19.22-.44,26.16.87,1.91.36,13.42,4.05,10.93,6.68Z"/>
      <path class="cls-3" d="M909.16,246.51c.18.88-.1,1.44-.41,2.21-2.7,6.7-14.24,26.17-19.46,30.75-1.17,1.03-5.17,3.39-6.36,2.25-1.37-1.32,5.54-14.08,6.87-15.98,2.63-3.77,8.06-7.38,9.79-11.95,2.8-7.42-3.49-8.31,9.57-7.28Z"/>
      <path class="cls-15" d="M869.18,392.35c7.89-7.29,15.16-18.6,27.6-17.74,3.23.22,8.56,3.41,3.73,4.48-3.6.8-8.5,1.44-11.85,3.14-8.32,4.23-17.2,21.19-27.73,17.76-1.89-.61-2.02-3.88.65-4.37,4.07-.74,4.14-.07,7.6-3.27Z"/>
      <path d="M948.88,226.27c-.33.28-2.15.1-2.63-.73-.72-1.25-.15-3.24-.54-4.71-1.26-4.75-4.17-12.52-9.37-13.86-2.41-.62-6.62,1.04-6.22-2.77.23-2.2,2.18-2.74,4.14-2.73,3.66.02,14.38,1.24,17.25,3.06,1.2.76,3.62,3.18,3.26,4.69-1.78,2.04-5.13,16.4-5.9,17.05Z"/>
      <path class="cls-15" d="M983.1,288.96c-4.91,5.62-12.89,8.1-19.98,5.12-2.32-.97-5.5-4.58-2.88-6.26.45-.29,8.05-.33,10.54-1.07s8.34-4.09,9.61-6.13,1.76-9.04,5.6-4.1c2.16,2.79-.65,9.87-2.88,12.43Z"/>
      <path d="M738.27,397.85c1.64,1.6-7.68,9.36-9.03,10.82-2.8,3.02-15.77,18.71-18.32,19.16-1.22.22-1.24-.04-1.16-1.16.17-2.63,5.04-7.94,6.65-10.6,3.52-5.83,6.84-12.12,9.87-18.23,1.77.31,11.56-.42,11.99,0Z"/>
      <path d="M988.6,286.22c1.77,1.26,1.31,14.66.57,17.41s-3.46,9.62-6.91,8.85c-1.71-5.03-5.86-9.38-7.15-14.27,3.34-.18,7.93-3.69,9.64-6.48.58-.94,1.97-6.85,3.85-5.51Z"/>
      <path class="cls-12" d="M545.65,515.48c-8.53,3.14-16.26,6.72-25.48,9.74l1.49-3.36c-.84-.2-5.83-3.37-3.75-4.52.46-.25,9.64-2.56,10.16-2.53,1.49.08,3.44,2.37,5.12,2.02.59-.12,4.54-3.27,5.72-3.59.16-.04.59-.05.75,0s.66.95,1.45,1.14c1.52.38,3.13.37,4.55,1.11Z"/>
      <path class="cls-15" d="M287.55,644.59c6.77-.42,12.15,6.84,6.66,11.77-8.51,7.64-16.21-11.18-6.66-11.77Z"/>
      <path class="cls-2" d="M864.19,735.01c4.4-1.3,8.33-5.61,11.58-6.03,11.32-1.45,5.91,8.81-3.71,9.77-1.95.2-9.64.75-8.63-3,.22-.03.52-.68.75-.75Z"/>
      <path d="M974.17,302.9c.39.39,4.5,9.17,4.65,9.97.92,5.01-3.9,5.06-7.09,2.57-5.63-4.38-1.78-16.75,2.44-12.54Z"/>
      <path class="cls-5" d="M967.6,298.25c.37.54-.54,11.43-.72,13.06-.07.64-1.48.52-1.86.36-.45-.19-5.09-7.51-5.3-8.19-.58-1.94-1.2-6.61,1.52-6.8.72-.05,6.17,1.31,6.35,1.57Z"/>
      <path class="cls-2" d="M857.45,215.03c-.02.91,1.95,3.12-.37,3.01-4-.18-10.3-2.55-10.86-7.2-.09-.72.51-7.49.74-7.8.07-.09,1.7-.29,2.3.47,1.95,2.48,3,7.73,6.12,10.61.45.41,1.22.08,1.32.17.26.24.47.52.75.75Z"/>
      <path class="cls-12" d="M560.64,531.22l3.73,1.12c-2.13,1.42-2.16,4.16-4.09,5.64-2.3,1.77-9.9,4.26-12.78,4.18-1.35-.04-2.15,1.14-1.86-1.21,3.52-1.71,11.66-7.13,14.99-9.74Z"/>
      <path class="cls-1" d="M897.92,197.8c3.15-.8,6.18-2.54,9.57-.94,2.05.96,2.37,3.72,3.39,4.47,2.81,2.07,4.98-1,5.69,5.92.53,5.16-.73,4.1-2.92,7.78-1.33-.27-1.8-3.42-3.35-3.53-2.96-.21-9.49,5.38-4.88,8.77-2.38,0-3.57-2.7-4.5-4.49-.81-2.38-.61-4.89.61-7.12-.43,2.14-1.14,3.52-2.11,4.12h-.75c-.65-.21-.64-.46,0-.75-1.29-.2-1.37-.6-.22-1.2l-.25-2.82c-1.84-.79-1.5-3.04.47-3.47,1.12-2.33-.14-4.12-1.57-5.99l.82-.76Z"/>
      <path class="cls-1" d="M895.67,198.55c2.56-.23,4.28,3.78,3,5.99.13,1.46-.64,5.34,0,7.49-.56-.07-1.06.43-1.5,1.5-3.09.93-3.26.68-6-.75-.95-2.75-1.19-3.14-.71-1.17l-.79.42c-.45,1.53-1.03,2.59-1.5,4.5.59,1.31.49,1.6-.75.75-.4-.68-.63-1.26-1.5-1.5-.21.65-.46.64-.75,0,0-2.85-1.19-6.29-2.25-8.99-.78-1.5-1.23-3.1,0-4.5,1.86-1.02,10-2.97,12.74-3.75Z"/>
      <path class="cls-16" d="M897.92,197.8c.53,2.64,3.87,4.39.75,6.74-.21-2.34-.75-4.68-3-5.99.64-.18,1.28-.5,2.25-.75Z"/>
      <path class="cls-13" d="M900.92,215.78c-.29-.55-1.49-2.8-1.5-3,0-.25,1.32-4.49,2.24-4.49l-.74,7.49Z"/>
      <path class="cls-11" d="M897.17,213.54c-.54-1.89-1.97-7.33.73-5.63l.77,4.13v.75c-.51.18-1.01.6-1.5.75Z"/>
      <path class="cls-10" d="M885.93,215.78l-1.12,5.25c-.98-1.51.37-3.54.37-5.25h.75Z"/>
      <path class="cls-8" d="M888.17,216.53c.45.58,2.42,4.31,2.25,4.49-1.42,1.47-2.71-3.26-3-3.74.32-.13.67-.42.75-.75Z"/>
      <path class="cls-17" d="M889.67,212.04c.45-1.51-1.08-3.55,1.5-2.99v3.74c-.49-.26-1-.5-1.5-.75Z"/>
      <path class="cls-4" d="M882.93,206.79c-.18-.47-3.43-2.62,0-4.5v4.5Z"/>
      <path class="cls-14" d="M915.16,206.79c-.35.19-1.69-.2-2.47,0-.56.14-.7,2.74-2.03,1.5-.07-.07-.75-1.77-.74-1.87.04-.59,3.95-1.47,4.11-3.35,1.34.47,1.35,3.62,1.13,3.73Z"/>
    </g>
    <image width="840" height="187" transform="translate(10.04 296.01) scale(.75)" xlink:href="../OneDrive/Documents/Layer 2.png"/>
  </g>
  <g id="Layer_2_Image" data-name="Layer 2 Image">
    <g>
      <path class="cls-6" d="M882.18,167.07c10.94-1.03,23.29,3.49,30.06,12.23,9.02,11.65-3.39,14.46-13,14.91-7.56.35-10.97-1.19-17.75-3.01-9.16-2.46-21.19-1.03-28.69,5.08-.29.18-.93.14-1.14-.11-.68-.81,1.12-7.99,1.53-9.28.63-1.98,1.66-3.44,2.26-5.33,5.99-8.08,16.75-13.55,26.72-14.49Z"/>
      <g>
        <path class="cls-6" d="M856.97,214.02c-1.97-2.44-4.41-7.08-5.27-10-.33-1.11-.28-2.47-.74-3.58,4.87-4.68,11.28-7.72,18.03-8.42,1.64-.17,6.92-.45,8.32-.17.66.13.66.58,1.05.71.44.15,1.02-.09,1.5.1.35.14,1.46,1.04,2.33,1.32,8.27,2.67,23.14,2.46,31.23-.77,2.22-.89,6.12-4.78,7.78.04,1.3,3.78,1.26,17.45-.07,21.24-1.96,5.58-8.86,6.73-14.04,7.73-9.82,1.88-18.58,1.38-28.33.31-8.38-.92-16.07-1.44-21.8-8.52ZM909.4,209.99l.73.19c.42.56,3,4.7,3.28,4.76.4.09,1.11-1.72,1.6-2.05.38-.26,1.15-.14,1.54-.65.14-.18.9-4.03.88-4.39-.04-1.11-.78-1.43-1.02-2.34-.22-.82-.01-1.67-.29-2.34-.54-1.27-3.51-1.19-4.59-1.69-.91-.42-2.09-3.14-3.16-4-3.06-2.46-6.4-.49-9.78-.13-1.98,1.68,1.52,3.26,1.46,4.95-.03.8-1.58,3.19-1.88,4.12-.32,1-.77,3.33-.58,4.31.24,1.23,1.85,3.18,2.61,1.22.07-.19.87-4.6,1.67-3,.54,1.08-2,4.7-.19,8.07.21.4,3.24,4.77,3.49,3.09.06-.38-1.64-1.99-.85-4.48.7-2.22,4.77-2.78,5.3-3.76.22-.4-.79-1.24-.21-1.89ZM895.91,198.47c-.66,0-11.8,3.47-12.62,3.89-.29.15-.47.27-.58.59.4,1.82.21,3.38.62,5.24.34,1.53,1.74,3.6,1.81,4.63.04.6-.31,1.32-.28,1.88.05.86.53,1.38.42,2.49-.13,1.3-1.38,2.01-.37,3.58.2.31,1.45,1.29,1.67.63.09-.26-1.37-4.89.09-5.17,1.36-.26,1.11,4.55,2.84,5.05,1.96.58-.19-2.47-.39-3.12-.25-.82-.54-2.18-.49-3.03.39-.66,1.54-5.58,1.84-5.61.71-.08-.08,2.49,1.72,3.68,1.41.92,5.76,1.37,5.12-.88-.12-.43-.53-.61-.63-1.13-.47-2.44.51-3.97,1.19-5.94.19-.53,1.16-2.84,1.13-3.09-.02-.21-2.09-3.48-2.27-3.59-.41-.24-.45-.12-.83-.11Z"/>
        <path class="cls-6" d="M847.54,203.28c1.59-.61,1.99,1.76,2.45,2.6.13.23.48.25.63.53.12.22-.08.75.1,1.07.77,1.38,3.69,5.76,4.66,6.74.36.36.81.22.96.35.53.46,2.4,2.47,1.55,3.15-.1.08-1.88.28-2.03.25-.48-.09-.54-.62-.89-.72-3.96-1.1-6.45-.94-7.87-5.42-.88-2.78-.26-2.25.03-4.72.1-.82-.31-3.56.41-3.83Z"/>
        <g>
          <path class="cls-9" d="M909.4,209.99c-.58.65.43,1.49.21,1.89-.53.98-4.6,1.54-5.3,3.76-.79,2.5.9,4.1.85,4.48-.24,1.68-3.27-2.69-3.49-3.09-1.82-3.38.72-7,.19-8.07-.8-1.6-1.59,2.81-1.67,3-.76,1.96-2.37.01-2.61-1.22-.19-.98.27-3.31.58-4.31.3-.94,1.85-3.32,1.88-4.12.06-1.69-3.44-3.27-1.46-4.95,3.38-.36,6.72-2.33,9.78.13,1.07.86,2.24,3.58,3.16,4,1.08.5,4.06.42,4.59,1.69.28.67.07,1.52.29,2.34.25.91.98,1.23,1.02,2.34.01.35-.75,4.21-.88,4.39-.4.51-1.16.39-1.54.65-.49.34-1.2,2.14-1.6,2.05-.28-.06-2.86-4.19-3.28-4.76l-.73-.19ZM912.73,208.35c-1.88-3.52-.5-1.31,1.11-1.29,2.36.03,1.68-3.28.81-3.6-1.59-.58-1.22,1.13-1.82,1.55-.41.28-1.41.14-1.84.35-1.7.8.19,3.8,1.74,2.98ZM915.03,208.25c-.78.07-.57.91.11.85s.6-.91-.11-.85Z"/>
          <path class="cls-9" d="M895.91,198.47c.38,0,.42-.13.83.11.18.11,2.24,3.38,2.27,3.59.03.24-.95,2.56-1.13,3.09-.69,1.97-1.67,3.51-1.19,5.94.1.52.5.69.63,1.13.64,2.26-3.71,1.81-5.12.88-1.81-1.18-1.01-3.76-1.72-3.68-.29.03-1.44,4.96-1.84,5.61-.06.85.23,2.21.49,3.03.2.65,2.35,3.7.39,3.12-1.72-.51-1.48-5.32-2.84-5.05-1.46.28,0,4.92-.09,5.17-.23.65-1.47-.32-1.67-.63-1.01-1.57.24-2.28.37-3.58.11-1.11-.37-1.64-.42-2.49-.03-.55.32-1.28.28-1.88-.07-1.03-1.47-3.1-1.81-4.63-.41-1.85-.22-3.42-.62-5.24.11-.32.3-.44.58-.59.83-.42,11.96-3.88,12.62-3.89Z"/>
          <path class="cls-6" d="M912.73,208.35c-1.55.81-3.44-2.18-1.74-2.98.44-.21,1.43-.06,1.84-.35.61-.42.24-2.14,1.82-1.55.87.32,1.55,3.63-.81,3.6-1.61-.02-3-2.23-1.11,1.29Z"/>
          <path class="cls-6" d="M915.03,208.25c.71-.06.83.79.11.85s-.9-.78-.11-.85Z"/>
        </g>
      </g>
    </g>
    <path class="cls-7" d="M856.94,214.55c1.89,1.55,2.03,3.38,1.8,3.54s-1.55-1.3-2.96-3.28-2.37-3.7-2.14-3.86,2.68,3.08,3.31,3.6Z"/>
    <path class="cls-7" d="M859.39,218.27c2.44-.17,3.79,1.06,3.74,1.34s-2.03.12-4.41-.35-4.26-1.06-4.21-1.34,4.07.4,4.88.35Z"/>
  </g>
</svg>